<?xml version="1.0" encoding="utf-8"?>
<!-- Generator: Adobe Illustrator 16.0.0, SVG Export Plug-In . SVG Version: 6.00 Build 0)  -->
<!DOCTYPE svg PUBLIC "-//W3C//DTD SVG 1.1//EN" "http://www.w3.org/Graphics/SVG/1.1/DTD/svg11.dtd">
<svg version="1.1" xmlns="http://www.w3.org/2000/svg" xmlns:xlink="http://www.w3.org/1999/xlink" x="0px" y="0px"
	 width="41.583px" height="41.583px" viewBox="0 0 41.583 41.583" enable-background="new 0 0 41.583 41.583" xml:space="preserve">
<g id="Layer_3" display="none">
	<rect x="13.944" y="12.886" display="inline" fill="none" width="12.844" height="5.813"/>
	<text transform="matrix(1 0 0 1 13.9438 14.3213)" display="inline"><tspan x="0" y="0" fill="#010101" font-family="'HelveticaLTStd-Bold'" font-size="2">DROP  </tspan><tspan x="0" y="2" fill="#010101" font-family="'HelveticaLTStd-Bold'" font-size="2">REFERENCE </tspan><tspan x="0" y="4" fill="#010101" font-family="'HelveticaLTStd-Bold'" font-size="2">.STL HERE</tspan></text>
</g>
<g id="Layer_1">
	
		<polygon fill="none" stroke="#231F20" stroke-width="0.03" stroke-linecap="round" stroke-linejoin="round" stroke-miterlimit="10" points="
		34.933,12.108 23.668,9.579 17.919,9.579 13.552,10.729 10.563,8.891 4.125,15.786 9.643,29.122 13.092,31.881 24.587,33.72 
		26.196,29.813 27.806,28.894 30.794,26.364 37.921,19.235 	"/>
	<g>
		
			<polygon id="triangle36_164_" fill="none" stroke="#231F20" stroke-width="0.03" stroke-linecap="round" stroke-linejoin="round" stroke-miterlimit="10" points="
			24.587,33.72 19.53,24.983 26.196,29.813 		"/>
		
			<polygon id="triangle36_163_" fill="none" stroke="#231F20" stroke-width="0.03" stroke-linecap="round" stroke-linejoin="round" stroke-miterlimit="10" points="
			18.379,21.076 19.53,24.983 21.829,19.006 		"/>
		
			<polygon id="triangle36_162_" fill="none" stroke="#231F20" stroke-width="0.03" stroke-linecap="round" stroke-linejoin="round" stroke-miterlimit="10" points="
			18.379,21.076 9.643,29.122 19.53,24.983 		"/>
		
			<polygon id="triangle36_161_" fill="none" stroke="#231F20" stroke-width="0.03" stroke-linecap="round" stroke-linejoin="round" stroke-miterlimit="10" points="
			18.379,21.076 4.125,15.786 9.643,29.122 		"/>
		
			<polygon id="triangle36_160_" fill="none" stroke="#231F20" stroke-width="0.03" stroke-linecap="round" stroke-linejoin="round" stroke-miterlimit="10" points="
			17.919,9.579 18.379,21.076 21.829,19.006 		"/>
		
			<polygon id="triangle36_159_" fill="none" stroke="#231F20" stroke-width="0.03" stroke-linecap="round" stroke-linejoin="round" stroke-miterlimit="10" points="
			27.346,25.674 26.196,29.813 27.806,28.894 		"/>
		
			<polygon id="triangle36_158_" fill="none" stroke="#231F20" stroke-width="0.03" stroke-linecap="round" stroke-linejoin="round" stroke-miterlimit="10" points="
			27.346,25.674 19.53,24.983 26.196,29.813 		"/>
		
			<polygon id="triangle36_157_" fill="none" stroke="#231F20" stroke-width="0.03" stroke-linecap="round" stroke-linejoin="round" stroke-miterlimit="10" points="
			27.346,25.674 19.53,24.983 21.829,19.006 		"/>
		
			<polygon id="triangle36_155_" fill="none" stroke="#231F20" stroke-width="0.03" stroke-linecap="round" stroke-linejoin="round" stroke-miterlimit="10" points="
			13.552,10.729 17.919,9.579 18.379,21.076 		"/>
		
			<polygon id="triangle36_153_" fill="none" stroke="#231F20" stroke-width="0.03" stroke-linecap="round" stroke-linejoin="round" stroke-miterlimit="10" points="
			13.552,10.729 4.125,15.786 18.379,21.076 		"/>
		
			<polygon id="triangle36_151_" fill="none" stroke="#231F20" stroke-width="0.03" stroke-linecap="round" stroke-linejoin="round" stroke-miterlimit="10" points="
			13.552,10.729 4.125,15.786 10.563,8.891 		"/>
		
			<polygon id="triangle36_150_" fill="none" stroke="#231F20" stroke-width="0.03" stroke-linecap="round" stroke-linejoin="round" stroke-miterlimit="10" points="
			13.092,31.881 19.53,24.983 24.587,33.72 		"/>
		
			<polygon id="triangle36_149_" fill="none" stroke="#231F20" stroke-width="0.03" stroke-linecap="round" stroke-linejoin="round" stroke-miterlimit="10" points="
			13.092,31.881 9.643,29.122 19.53,24.983 		"/>
		
			<polygon id="triangle36_148_" fill="none" stroke="#231F20" stroke-width="0.03" stroke-linecap="round" stroke-linejoin="round" stroke-miterlimit="10" points="
			23.668,9.579 17.919,9.579 21.829,19.006 		"/>
		
			<polygon id="triangle36_147_" fill="none" stroke="#231F20" stroke-width="0.03" stroke-linecap="round" stroke-linejoin="round" stroke-miterlimit="10" points="
			30.794,26.364 27.346,25.674 37.921,19.235 		"/>
		
			<polygon id="triangle36_146_" fill="none" stroke="#231F20" stroke-width="0.03" stroke-linecap="round" stroke-linejoin="round" stroke-miterlimit="10" points="
			30.794,26.364 27.346,25.674 27.806,28.894 		"/>
		
			<polygon id="triangle36_145_" fill="none" stroke="#231F20" stroke-width="0.03" stroke-linecap="round" stroke-linejoin="round" stroke-miterlimit="10" points="
			34.933,12.108 27.346,25.674 37.921,19.235 		"/>
		
			<polygon id="triangle36_144_" fill="none" stroke="#231F20" stroke-width="0.03" stroke-linecap="round" stroke-linejoin="round" stroke-miterlimit="10" points="
			34.933,12.108 21.829,19.006 27.346,25.674 		"/>
		
			<polygon id="triangle36_143_" fill="none" stroke="#231F20" stroke-width="0.03" stroke-linecap="round" stroke-linejoin="round" stroke-miterlimit="10" points="
			34.933,12.108 21.829,19.006 23.668,9.579 		"/>
	</g>
	<rect x="7.694" y="15.511" fill="#F8F8F8" width="12.313" height="6.25"/>
	<g>
		<path fill="#787878" d="M8.096,15.886h0.633c0.484,0,0.584,0.412,0.584,0.684c0,0.309-0.122,0.752-0.596,0.752H8.096V15.886z
			 M8.39,17.073h0.292c0.244,0,0.326-0.246,0.326-0.481c0-0.424-0.202-0.458-0.33-0.458H8.39V17.073z"/>
		<path fill="#787878" d="M9.46,15.886h0.726c0.382,0,0.451,0.282,0.451,0.406c0,0.158-0.08,0.294-0.222,0.342
			c0.118,0.052,0.182,0.096,0.182,0.363c0,0.21,0,0.263,0.064,0.286v0.038H10.33c-0.021-0.068-0.032-0.142-0.032-0.29
			c0-0.195-0.012-0.271-0.233-0.271H9.753v0.562H9.46V15.886z M10.106,16.518c0.155,0,0.231-0.054,0.231-0.195
			c0-0.076-0.034-0.188-0.21-0.188H9.753v0.384H10.106z"/>
		<path fill="#787878" d="M11.41,15.848c0.19,0,0.689,0.082,0.689,0.756s-0.499,0.756-0.689,0.756c-0.189,0-0.689-0.082-0.689-0.756
			S11.22,15.848,11.41,15.848z M11.41,17.105c0.162,0,0.39-0.1,0.39-0.502c0-0.401-0.228-0.502-0.39-0.502s-0.39,0.101-0.39,0.502
			C11.02,17.006,11.248,17.105,11.41,17.105z"/>
		<path fill="#787878" d="M12.56,17.321h-0.3v-1.436h0.655c0.277,0,0.445,0.179,0.445,0.46c0,0.13-0.071,0.458-0.457,0.458H12.56
			V17.321z M12.837,16.556c0.224,0,0.224-0.16,0.224-0.224c0-0.14-0.077-0.198-0.264-0.198H12.56v0.422H12.837z"/>
		<path fill="#787878" d="M8.096,17.886h0.726c0.382,0,0.451,0.282,0.451,0.406c0,0.158-0.08,0.294-0.222,0.342
			c0.118,0.052,0.182,0.096,0.182,0.363c0,0.21,0,0.263,0.064,0.286v0.038H8.965c-0.021-0.068-0.032-0.142-0.032-0.29
			c0-0.195-0.012-0.271-0.233-0.271H8.39v0.562H8.096V17.886z M8.742,18.518c0.155,0,0.231-0.054,0.231-0.195
			c0-0.076-0.034-0.188-0.21-0.188H8.39v0.384H8.742z"/>
		<path fill="#787878" d="M10.515,18.14H9.753v0.302h0.7v0.254h-0.7v0.372h0.796v0.254H9.46v-1.436h1.055V18.14z"/>
		<path fill="#787878" d="M11.014,19.321h-0.3v-1.436h1.021v0.254h-0.722v0.324h0.631v0.254h-0.631V19.321z"/>
		<path fill="#787878" d="M12.911,18.14h-0.762v0.302h0.7v0.254h-0.7v0.372h0.796v0.254h-1.089v-1.436h1.055V18.14z"/>
		<path fill="#787878" d="M13.11,17.886h0.726c0.382,0,0.451,0.282,0.451,0.406c0,0.158-0.08,0.294-0.222,0.342
			c0.118,0.052,0.182,0.096,0.182,0.363c0,0.21,0,0.263,0.064,0.286v0.038h-0.332c-0.021-0.068-0.032-0.142-0.032-0.29
			c0-0.195-0.012-0.271-0.233-0.271h-0.311v0.562H13.11V17.886z M13.755,18.518c0.155,0,0.231-0.054,0.231-0.195
			c0-0.076-0.034-0.188-0.21-0.188h-0.374v0.384H13.755z"/>
		<path fill="#787878" d="M15.529,18.14h-0.762v0.302h0.7v0.254h-0.7v0.372h0.796v0.254h-1.089v-1.436h1.055V18.14z"/>
		<path fill="#787878" d="M16.603,17.886h0.28v1.436h-0.3l-0.586-1.023h-0.004v1.023h-0.28v-1.436h0.316l0.569,1h0.004V17.886z"/>
		<path fill="#787878" d="M18.008,18.355c-0.024-0.086-0.07-0.247-0.317-0.247c-0.145,0-0.356,0.096-0.356,0.501
			c0,0.258,0.103,0.49,0.356,0.49c0.165,0,0.281-0.094,0.317-0.271h0.3c-0.06,0.313-0.264,0.53-0.624,0.53
			c-0.382,0-0.655-0.258-0.655-0.754c0-0.502,0.29-0.758,0.66-0.758c0.43,0,0.604,0.296,0.619,0.508H18.008z"/>
		<path fill="#787878" d="M19.512,18.14H18.75v0.302h0.7v0.254h-0.7v0.372h0.796v0.254h-1.089v-1.436h1.055V18.14z"/>
		<path fill="#787878" d="M8.372,21.321h-0.3v-0.292h0.3V21.321z"/>
		<path fill="#787878" d="M8.786,20.88c0.002,0.08,0.042,0.231,0.304,0.231c0.143,0,0.3-0.034,0.3-0.186
			c0-0.112-0.107-0.143-0.26-0.178l-0.153-0.036C8.744,20.657,8.52,20.605,8.52,20.29c0-0.16,0.086-0.442,0.552-0.442
			c0.439,0,0.558,0.288,0.56,0.464H9.343c-0.008-0.063-0.032-0.216-0.294-0.216c-0.113,0-0.25,0.042-0.25,0.172
			c0,0.112,0.093,0.136,0.152,0.15l0.35,0.086c0.196,0.048,0.376,0.128,0.376,0.386c0,0.432-0.439,0.47-0.565,0.47
			c-0.524,0-0.614-0.302-0.614-0.479H8.786z"/>
		<path fill="#787878" d="M10.396,21.321h-0.3V20.14H9.663v-0.254h1.167v0.254h-0.434V21.321z"/>
		<path fill="#787878" d="M11.228,21.062h0.713v0.26h-1.013v-1.436h0.3V21.062z"/>
		<path fill="#787878" d="M12.834,20.678v0.644h-0.3v-1.436h0.3v0.544h0.56v-0.544h0.301v1.436h-0.301v-0.644H12.834z"/>
		<path fill="#787878" d="M14.964,20.14h-0.762v0.302h0.7v0.254h-0.7v0.372h0.796v0.254H13.91v-1.436h1.055V20.14z"/>
		<path fill="#787878" d="M15.165,19.886h0.726c0.382,0,0.451,0.282,0.451,0.406c0,0.158-0.08,0.294-0.222,0.342
			c0.118,0.052,0.182,0.096,0.182,0.363c0,0.21,0,0.263,0.064,0.286v0.038h-0.332c-0.021-0.068-0.032-0.142-0.032-0.29
			c0-0.195-0.012-0.271-0.233-0.271h-0.311v0.562h-0.293V19.886z M15.81,20.518c0.155,0,0.231-0.054,0.231-0.195
			c0-0.076-0.034-0.188-0.21-0.188h-0.374v0.384H15.81z"/>
		<path fill="#787878" d="M17.583,20.14h-0.762v0.302h0.7v0.254h-0.7v0.372h0.796v0.254h-1.089v-1.436h1.055V20.14z"/>
	</g>
</g>
<g id="Layer_2" display="none">
	<linearGradient id="SVGID_1_" gradientUnits="userSpaceOnUse" x1="6.4224" y1="32.46" x2="30.8518" y2="8.0306">
		<stop  offset="0" style="stop-color:#E5CEA7"/>
		<stop  offset="1" style="stop-color:#E6D0AD"/>
	</linearGradient>
	<polygon display="inline" fill="url(#SVGID_1_)" points="34.933,12.108 23.668,9.579 17.919,9.579 13.552,10.729 10.563,8.891 
		4.125,15.786 9.643,29.122 13.092,31.881 24.587,33.72 26.196,29.813 27.806,28.894 30.794,26.364 37.921,19.235 	"/>
	<g display="inline">
		
			<linearGradient id="triangle36_1_" gradientUnits="userSpaceOnUse" x1="-280.5068" y1="437.7383" x2="-280.277" y2="437.5085" gradientTransform="matrix(-29 0 0 -38 -8108.9321 16658.5)">
			<stop  offset="0" style="stop-color:#9F8356"/>
			<stop  offset="1" style="stop-color:#A69168"/>
		</linearGradient>
		<polygon id="triangle36_92_" fill="url(#triangle36_1_)" points="24.587,33.72 19.53,24.983 26.196,29.813 		"/>
		
			<linearGradient id="triangle36_2_" gradientUnits="userSpaceOnUse" x1="-285.647" y1="434.5439" x2="-285.4171" y2="434.3141" gradientTransform="matrix(-15 0 0 -26 -4263.1489 11316.6592)">
			<stop  offset="0" style="stop-color:#AEA581"/>
			<stop  offset="1" style="stop-color:#97916D"/>
		</linearGradient>
		<polygon id="triangle36_91_" fill="url(#triangle36_2_)" points="18.379,21.076 19.53,24.983 21.829,19.006 		"/>
		
			<linearGradient id="triangle36_3_" gradientUnits="userSpaceOnUse" x1="-279.6089" y1="436.877" x2="-279.379" y2="436.6471" gradientTransform="matrix(-43 0 0 -35 -12002.7324 15312.5352)">
			<stop  offset="0" style="stop-color:#BDB38E"/>
			<stop  offset="1" style="stop-color:#9C906A"/>
		</linearGradient>
		<polygon id="triangle36_89_" fill="url(#triangle36_3_)" points="18.379,21.076 9.643,29.122 19.53,24.983 		"/>
		
			<linearGradient id="triangle36_4_" gradientUnits="userSpaceOnUse" x1="-278.5313" y1="439.042" x2="-278.3014" y2="438.8121" gradientTransform="matrix(-62 0 0 -58 -17252.709 25478.1758)">
			<stop  offset="0" style="stop-color:#928760"/>
			<stop  offset="1" style="stop-color:#A19872"/>
		</linearGradient>
		<polygon id="triangle36_88_" fill="url(#triangle36_4_)" points="18.379,21.076 4.125,15.786 9.643,29.122 		"/>
		
			<linearGradient id="triangle36_5_" gradientUnits="userSpaceOnUse" x1="-284.5254" y1="437.9668" x2="-284.2954" y2="437.7368" gradientTransform="matrix(-17 0 0 -50 -4815.2622 21907.4492)">
			<stop  offset="0" style="stop-color:#E1CDAB"/>
			<stop  offset="1" style="stop-color:#C9B790"/>
		</linearGradient>
		<polygon id="triangle36_87_" fill="url(#triangle36_5_)" points="17.919,9.579 18.379,21.076 21.829,19.006 		"/>
		
			<linearGradient id="triangle36_6_" gradientUnits="userSpaceOnUse" x1="-293.8164" y1="431.9766" x2="-293.5864" y2="431.7466" gradientTransform="matrix(-7 0 0 -18 -2028.6992 7801.7764)">
			<stop  offset="0" style="stop-color:#8C6B45"/>
			<stop  offset="1" style="stop-color:#94734B"/>
		</linearGradient>
		<polygon id="triangle36_86_" fill="url(#triangle36_6_)" points="27.346,25.674 26.196,29.813 27.806,28.894 		"/>
		
			<linearGradient id="triangle36_7_" gradientUnits="userSpaceOnUse" x1="-279.7427" y1="433.4717" x2="-279.5128" y2="433.2418" gradientTransform="matrix(-34 0 0 -21 -9484.2012 9127.7246)">
			<stop  offset="0" style="stop-color:#89663F"/>
			<stop  offset="1" style="stop-color:#977D57"/>
		</linearGradient>
		<polygon id="triangle36_85_" fill="url(#triangle36_7_)" points="27.346,25.674 19.53,24.983 26.196,29.813 		"/>
		
			<linearGradient id="triangle36_8_" gradientUnits="userSpaceOnUse" x1="-279.7686" y1="435.3867" x2="-279.5386" y2="435.1568" gradientTransform="matrix(-34 0 0 -29 -9484.2012 12645.7012)">
			<stop  offset="0" style="stop-color:#BFAE88"/>
			<stop  offset="1" style="stop-color:#AA966D"/>
		</linearGradient>
		<polygon id="triangle36_83_" fill="url(#triangle36_8_)" points="27.346,25.674 19.53,24.983 21.829,19.006 		"/>
		
			<linearGradient id="triangle36_9_" gradientUnits="userSpaceOnUse" x1="-283.4761" y1="437.9512" x2="-283.2462" y2="437.7213" gradientTransform="matrix(-21 0 0 -50 -5934.4907 21907.4492)">
			<stop  offset="0" style="stop-color:#B1A27C"/>
			<stop  offset="1" style="stop-color:#EACCA2"/>
		</linearGradient>
		<polygon id="triangle36_82_" fill="url(#triangle36_9_)" points="13.552,10.729 17.919,9.579 18.379,21.076 		"/>
		
			<linearGradient id="triangle36_10_" gradientUnits="userSpaceOnUse" x1="-278.5938" y1="437.4541" x2="-278.3638" y2="437.2242" gradientTransform="matrix(-62 0 0 -45 -17252.709 19697.4023)">
			<stop  offset="0" style="stop-color:#B0A17C"/>
			<stop  offset="1" style="stop-color:#E0C39D"/>
		</linearGradient>
		<polygon id="triangle36_81_" fill="url(#triangle36_10_)" points="13.552,10.729 4.125,15.786 18.379,21.076 		"/>
		
			<linearGradient id="triangle36_11_" gradientUnits="userSpaceOnUse" x1="-280.2446" y1="434.5264" x2="-280.0148" y2="434.2965" gradientTransform="matrix(-41 0 0 -30 -11476.6172 13044.6162)">
			<stop  offset="0" style="stop-color:#E0BE93"/>
			<stop  offset="1" style="stop-color:#DDBE95"/>
		</linearGradient>
		<polygon id="triangle36_80_" fill="url(#triangle36_11_)" points="13.552,10.729 4.125,15.786 10.563,8.891 		"/>
		
			<linearGradient id="triangle36_12_" gradientUnits="userSpaceOnUse" x1="-278.7866" y1="437.6914" x2="-278.5567" y2="437.4615" gradientTransform="matrix(-50 0 0 -38 -13913.1152 16658.5)">
			<stop  offset="0" style="stop-color:#9A8052"/>
			<stop  offset="1" style="stop-color:#A48D66"/>
		</linearGradient>
		<polygon id="triangle36_79_" fill="url(#triangle36_12_)" points="13.092,31.881 19.53,24.983 24.587,33.72 		"/>
		
			<linearGradient id="triangle36_13_" gradientUnits="userSpaceOnUse" x1="-279.585" y1="436.3242" x2="-279.355" y2="436.0943" gradientTransform="matrix(-43 0 0 -30 -12002.7324 13114.6162)">
			<stop  offset="0" style="stop-color:#AE9872"/>
			<stop  offset="1" style="stop-color:#987C54"/>
		</linearGradient>
		<polygon id="triangle36_77_" fill="url(#triangle36_13_)" points="13.092,31.881 9.643,29.122 19.53,24.983 		"/>
		
			<linearGradient id="triangle36_14_" gradientUnits="userSpaceOnUse" x1="-281.5571" y1="436.8682" x2="-281.3272" y2="436.6382" gradientTransform="matrix(-25 0 0 -41 -7015.7192 17920.4297)">
			<stop  offset="0" style="stop-color:#E4CEA9"/>
			<stop  offset="1" style="stop-color:#EDD1A8"/>
		</linearGradient>
		<polygon id="triangle36_76_" fill="url(#triangle36_14_)" points="23.668,9.579 17.919,9.579 21.829,19.006 		"/>
		
			<linearGradient id="triangle36_15_" gradientUnits="userSpaceOnUse" x1="-278.0288" y1="435.9023" x2="-277.7989" y2="435.6724" gradientTransform="matrix(-46 0 0 -31 -12750.7949 13532.5938)">
			<stop  offset="0" style="stop-color:#D2C7A2"/>
			<stop  offset="1" style="stop-color:#9F865D"/>
		</linearGradient>
		<polygon id="triangle36_75_" fill="url(#triangle36_15_)" points="30.794,26.364 27.346,25.674 37.921,19.235 		"/>
		
			<linearGradient id="triangle36_16_" gradientUnits="userSpaceOnUse" x1="-283.6177" y1="428.9131" x2="-283.3878" y2="428.6832" gradientTransform="matrix(-15 0 0 -14 -4224.1489 6029.835)">
			<stop  offset="0" style="stop-color:#7A5A36"/>
			<stop  offset="1" style="stop-color:#7C5934"/>
		</linearGradient>
		<polygon id="triangle36_74_" fill="url(#triangle36_16_)" points="30.794,26.364 27.346,25.674 27.806,28.894 		"/>
		
			<linearGradient id="triangle36_17_" gradientUnits="userSpaceOnUse" x1="-278.0298" y1="438.8545" x2="-277.7999" y2="438.6246" gradientTransform="matrix(-46 0 0 -59 -12750.7949 25905.3711)">
			<stop  offset="0" style="stop-color:#DFD1AE"/>
			<stop  offset="1" style="stop-color:#CCB58F"/>
		</linearGradient>
		<polygon id="triangle36_73_" fill="url(#triangle36_17_)" points="34.933,12.108 27.346,25.674 37.921,19.235 		"/>
		
			<linearGradient id="triangle36_18_" gradientUnits="userSpaceOnUse" x1="-277.8105" y1="438.873" x2="-277.5807" y2="438.6432" gradientTransform="matrix(-57 0 0 -59 -15800.5332 25905.3711)">
			<stop  offset="0" style="stop-color:#BBA47E"/>
			<stop  offset="1" style="stop-color:#E4D1AD"/>
		</linearGradient>
		<polygon id="triangle36_72_" fill="url(#triangle36_18_)" points="34.933,12.108 21.829,19.006 27.346,25.674 		"/>
		
			<linearGradient id="triangle36_19_" gradientUnits="userSpaceOnUse" x1="-277.7817" y1="436.8838" x2="-277.5518" y2="436.6539" gradientTransform="matrix(-57 0 0 -41 -15800.5332 17920.4297)">
			<stop  offset="0" style="stop-color:#E5CEA7"/>
			<stop  offset="1" style="stop-color:#E6D0AD"/>
		</linearGradient>
		<polygon id="triangle36_71_" fill="url(#triangle36_19_)" points="34.933,12.108 21.829,19.006 23.668,9.579 		"/>
	</g>
	<g display="inline">
		<path fill="#FFFFFF" d="M10.337,16.322c0-0.076-0.034-0.188-0.21-0.188H9.753v0.384h0.353
			C10.261,16.518,10.337,16.464,10.337,16.322z"/>
		<path fill="#FFFFFF" d="M9.007,16.592c0-0.424-0.202-0.458-0.33-0.458H8.39v0.939h0.292C8.925,17.073,9.007,16.827,9.007,16.592z"
			/>
		<path fill="#FFFFFF" d="M8.973,18.322c0-0.076-0.034-0.188-0.21-0.188H8.39v0.384h0.352C8.897,18.518,8.973,18.464,8.973,18.322z"
			/>
		<path fill="#FFFFFF" d="M11.41,17.105c0.162,0,0.39-0.1,0.39-0.502c0-0.401-0.228-0.502-0.39-0.502s-0.39,0.101-0.39,0.502
			C11.02,17.006,11.248,17.105,11.41,17.105z"/>
		<path fill="#FFFFFF" d="M13.061,16.332c0-0.14-0.077-0.198-0.264-0.198H12.56v0.422h0.277
			C13.061,16.556,13.061,16.396,13.061,16.332z"/>
		<path fill="#FFFFFF" d="M13.987,18.322c0-0.076-0.034-0.188-0.21-0.188h-0.374v0.384h0.353
			C13.911,18.518,13.987,18.464,13.987,18.322z"/>
		<path fill="#FFFFFF" d="M15.832,20.134h-0.374v0.384h0.353c0.155,0,0.231-0.054,0.231-0.195
			C16.042,20.246,16.007,20.134,15.832,20.134z"/>
		<path fill="#FFFFFF" d="M7.694,15.511v6.25h12.313v-6.25H7.694z M15.713,17.886h0.316l0.569,1h0.004v-1h0.28v1.436h-0.3
			l-0.586-1.023h-0.004v1.023h-0.28V17.886z M14.474,17.886h1.055v0.254h-0.762v0.302h0.7v0.254h-0.7v0.372h0.796v0.254h-1.089
			V17.886z M12.26,15.886h0.655c0.277,0,0.445,0.179,0.445,0.46c0,0.13-0.071,0.458-0.457,0.458H12.56v0.518h-0.3V15.886z
			 M12.849,18.441v0.254h-0.7v0.372h0.796v0.254h-1.089v-1.436h1.055v0.254h-0.762v0.302H12.849z M11.41,15.848
			c0.19,0,0.689,0.082,0.689,0.756s-0.499,0.756-0.689,0.756c-0.189,0-0.689-0.082-0.689-0.756S11.22,15.848,11.41,15.848z
			 M10.714,17.886h1.021v0.254h-0.722v0.324h0.631v0.254h-0.631v0.604h-0.3V17.886z M9.46,15.886h0.726
			c0.382,0,0.451,0.282,0.451,0.406c0,0.158-0.08,0.294-0.222,0.342c0.118,0.052,0.182,0.096,0.182,0.363
			c0,0.21,0,0.263,0.064,0.286v0.038H10.33c-0.021-0.068-0.032-0.142-0.032-0.29c0-0.195-0.012-0.271-0.233-0.271H9.753v0.562H9.46
			V15.886z M9.46,17.886h1.055v0.254H9.753v0.302h0.7v0.254h-0.7v0.372h0.796v0.254H9.46V17.886z M8.096,15.886h0.633
			c0.484,0,0.584,0.412,0.584,0.684c0,0.309-0.122,0.752-0.596,0.752H8.096V15.886z M8.372,21.321h-0.3v-0.292h0.3V21.321z
			 M8.39,19.321H8.096v-1.436h0.726c0.382,0,0.451,0.282,0.451,0.406c0,0.158-0.08,0.294-0.222,0.342
			c0.118,0.052,0.182,0.096,0.182,0.363c0,0.21,0,0.263,0.064,0.286v0.038H8.965c-0.021-0.068-0.032-0.142-0.032-0.29
			c0-0.195-0.012-0.271-0.233-0.271H8.39V19.321z M9.112,21.359c-0.524,0-0.614-0.302-0.614-0.479h0.288
			c0.002,0.08,0.042,0.231,0.304,0.231c0.143,0,0.3-0.034,0.3-0.186c0-0.112-0.107-0.143-0.26-0.178l-0.153-0.036
			C8.744,20.657,8.52,20.605,8.52,20.29c0-0.16,0.086-0.442,0.552-0.442c0.439,0,0.558,0.288,0.56,0.464H9.343
			c-0.008-0.063-0.032-0.216-0.294-0.216c-0.113,0-0.25,0.042-0.25,0.172c0,0.112,0.093,0.136,0.152,0.15l0.35,0.086
			c0.196,0.048,0.376,0.128,0.376,0.386C9.677,21.321,9.238,21.359,9.112,21.359z M10.83,20.14h-0.434v1.182h-0.3V20.14H9.663
			v-0.254h1.167V20.14z M11.941,21.321h-1.013v-1.436h0.3v1.176h0.713V21.321z M13.695,21.321h-0.301v-0.644h-0.56v0.644h-0.3
			v-1.436h0.3v0.544h0.56v-0.544h0.301V21.321z M13.403,18.76v0.562H13.11v-1.436h0.726c0.382,0,0.451,0.282,0.451,0.406
			c0,0.158-0.08,0.294-0.222,0.342c0.118,0.052,0.182,0.096,0.182,0.363c0,0.21,0,0.263,0.064,0.286v0.038h-0.332
			c-0.021-0.068-0.032-0.142-0.032-0.29c0-0.195-0.012-0.271-0.233-0.271H13.403z M14.999,21.321H13.91v-1.436h1.055v0.254h-0.762
			v0.302h0.7v0.254h-0.7v0.372h0.796V21.321z M16.366,21.321h-0.332c-0.021-0.068-0.032-0.142-0.032-0.29
			c0-0.195-0.012-0.271-0.233-0.271h-0.311v0.562h-0.293v-1.436h0.726c0.382,0,0.451,0.282,0.451,0.406
			c0,0.158-0.08,0.294-0.222,0.342c0.118,0.052,0.182,0.096,0.182,0.363c0,0.21,0,0.263,0.064,0.286V21.321z M17.618,21.321h-1.089
			v-1.436h1.055v0.254h-0.762v0.302h0.7v0.254h-0.7v0.372h0.796V21.321z M17.691,19.1c0.165,0,0.281-0.094,0.317-0.271h0.3
			c-0.06,0.313-0.264,0.53-0.624,0.53c-0.382,0-0.655-0.258-0.655-0.754c0-0.502,0.29-0.758,0.66-0.758
			c0.43,0,0.604,0.296,0.619,0.508h-0.3c-0.024-0.086-0.07-0.247-0.317-0.247c-0.145,0-0.356,0.096-0.356,0.501
			C17.334,18.867,17.437,19.1,17.691,19.1z M19.546,19.321h-1.089v-1.436h1.055v0.254H18.75v0.302h0.7v0.254h-0.7v0.372h0.796
			V19.321z"/>
	</g>
</g>
</svg>
