<?xml version="1.0" encoding="utf-8"?>
<!-- Generator: Adobe Illustrator 16.0.0, SVG Export Plug-In . SVG Version: 6.00 Build 0)  -->
<!DOCTYPE svg PUBLIC "-//W3C//DTD SVG 1.1//EN" "http://www.w3.org/Graphics/SVG/1.1/DTD/svg11.dtd">
<svg version="1.1" id="Layer_1" xmlns="http://www.w3.org/2000/svg" xmlns:xlink="http://www.w3.org/1999/xlink" x="0px" y="0px"
	 width="41.583px" height="41.583px" viewBox="0 0 41.583 41.583" enable-background="new 0 0 41.583 41.583" xml:space="preserve">
<g id="Layer_3" display="none">
	<rect x="13.944" y="12.886" display="inline" fill="none" width="12.844" height="5.813"/>
	
		<text transform="matrix(1 0 0 1 13.9438 14.3228)" display="inline" fill="#010101" font-family="'HelveticaLTStd-Bold'" font-size="2">DROP  </text>
	
		<text transform="matrix(1 0 0 1 13.9438 16.3228)" display="inline" fill="#010101" font-family="'HelveticaLTStd-Bold'" font-size="2">REFERENCE </text>
	
		<text transform="matrix(1 0 0 1 13.9438 18.3228)" display="inline" fill="#010101" font-family="'HelveticaLTStd-Bold'" font-size="2">.STL HERE</text>
</g>
<g id="Layer_1_1_" display="none">
	
		<polygon display="inline" fill="none" stroke="#231F20" stroke-width="0.03" stroke-linecap="round" stroke-linejoin="round" stroke-miterlimit="10" points="
		34.933,12.108 23.668,9.579 17.919,9.579 13.552,10.729 10.563,8.891 4.125,15.786 9.643,29.122 13.092,31.881 24.586,33.719 
		26.196,29.813 27.806,28.894 30.793,26.364 37.92,19.235 	"/>
	<g display="inline">
		
			<polygon id="triangle36_164_" fill="none" stroke="#231F20" stroke-width="0.03" stroke-linecap="round" stroke-linejoin="round" stroke-miterlimit="10" points="
			24.586,33.719 19.53,24.983 26.196,29.813 		"/>
		
			<polygon id="triangle36_163_" fill="none" stroke="#231F20" stroke-width="0.03" stroke-linecap="round" stroke-linejoin="round" stroke-miterlimit="10" points="
			18.379,21.076 19.53,24.983 21.829,19.006 		"/>
		
			<polygon id="triangle36_162_" fill="none" stroke="#231F20" stroke-width="0.03" stroke-linecap="round" stroke-linejoin="round" stroke-miterlimit="10" points="
			18.379,21.076 9.643,29.122 19.53,24.983 		"/>
		
			<polygon id="triangle36_161_" fill="none" stroke="#231F20" stroke-width="0.03" stroke-linecap="round" stroke-linejoin="round" stroke-miterlimit="10" points="
			18.379,21.076 4.125,15.786 9.643,29.122 		"/>
		
			<polygon id="triangle36_160_" fill="none" stroke="#231F20" stroke-width="0.03" stroke-linecap="round" stroke-linejoin="round" stroke-miterlimit="10" points="
			17.919,9.579 18.379,21.076 21.829,19.006 		"/>
		
			<polygon id="triangle36_159_" fill="none" stroke="#231F20" stroke-width="0.03" stroke-linecap="round" stroke-linejoin="round" stroke-miterlimit="10" points="
			27.346,25.674 26.196,29.813 27.806,28.894 		"/>
		
			<polygon id="triangle36_158_" fill="none" stroke="#231F20" stroke-width="0.03" stroke-linecap="round" stroke-linejoin="round" stroke-miterlimit="10" points="
			27.346,25.674 19.53,24.983 26.196,29.813 		"/>
		
			<polygon id="triangle36_157_" fill="none" stroke="#231F20" stroke-width="0.03" stroke-linecap="round" stroke-linejoin="round" stroke-miterlimit="10" points="
			27.346,25.674 19.53,24.983 21.829,19.006 		"/>
		
			<polygon id="triangle36_155_" fill="none" stroke="#231F20" stroke-width="0.03" stroke-linecap="round" stroke-linejoin="round" stroke-miterlimit="10" points="
			13.552,10.729 17.919,9.579 18.379,21.076 		"/>
		
			<polygon id="triangle36_153_" fill="none" stroke="#231F20" stroke-width="0.03" stroke-linecap="round" stroke-linejoin="round" stroke-miterlimit="10" points="
			13.552,10.729 4.125,15.786 18.379,21.076 		"/>
		
			<polygon id="triangle36_151_" fill="none" stroke="#231F20" stroke-width="0.03" stroke-linecap="round" stroke-linejoin="round" stroke-miterlimit="10" points="
			13.552,10.729 4.125,15.786 10.563,8.891 		"/>
		
			<polygon id="triangle36_150_" fill="none" stroke="#231F20" stroke-width="0.03" stroke-linecap="round" stroke-linejoin="round" stroke-miterlimit="10" points="
			13.092,31.881 19.53,24.983 24.586,33.719 		"/>
		
			<polygon id="triangle36_149_" fill="none" stroke="#231F20" stroke-width="0.03" stroke-linecap="round" stroke-linejoin="round" stroke-miterlimit="10" points="
			13.092,31.881 9.643,29.122 19.53,24.983 		"/>
		
			<polygon id="triangle36_148_" fill="none" stroke="#231F20" stroke-width="0.03" stroke-linecap="round" stroke-linejoin="round" stroke-miterlimit="10" points="
			23.668,9.579 17.919,9.579 21.829,19.006 		"/>
		
			<polygon id="triangle36_147_" fill="none" stroke="#231F20" stroke-width="0.03" stroke-linecap="round" stroke-linejoin="round" stroke-miterlimit="10" points="
			30.793,26.364 27.346,25.674 37.92,19.235 		"/>
		
			<polygon id="triangle36_146_" fill="none" stroke="#231F20" stroke-width="0.03" stroke-linecap="round" stroke-linejoin="round" stroke-miterlimit="10" points="
			30.793,26.364 27.346,25.674 27.806,28.894 		"/>
		
			<polygon id="triangle36_145_" fill="none" stroke="#231F20" stroke-width="0.03" stroke-linecap="round" stroke-linejoin="round" stroke-miterlimit="10" points="
			34.933,12.108 27.346,25.674 37.92,19.235 		"/>
		
			<polygon id="triangle36_144_" fill="none" stroke="#231F20" stroke-width="0.03" stroke-linecap="round" stroke-linejoin="round" stroke-miterlimit="10" points="
			34.933,12.108 21.829,19.006 27.346,25.674 		"/>
		
			<polygon id="triangle36_143_" fill="none" stroke="#231F20" stroke-width="0.03" stroke-linecap="round" stroke-linejoin="round" stroke-miterlimit="10" points="
			34.933,12.108 21.829,19.006 23.668,9.579 		"/>
	</g>
	<rect x="7.694" y="15.511" display="inline" fill="#FFFFFF" width="12.313" height="6.25"/>
	<g display="inline">
		<path fill="#010101" d="M8.096,15.886h0.633c0.484,0,0.584,0.412,0.584,0.684c0,0.309-0.122,0.752-0.596,0.752H8.096V15.886z
			 M8.39,17.073h0.292c0.244,0,0.326-0.246,0.326-0.481c0-0.424-0.202-0.458-0.33-0.458H8.39V17.073z"/>
		<path fill="#010101" d="M9.46,15.886h0.726c0.382,0,0.451,0.282,0.451,0.406c0,0.158-0.08,0.294-0.222,0.342
			c0.118,0.052,0.182,0.096,0.182,0.363c0,0.21,0,0.263,0.064,0.286v0.038H10.33c-0.021-0.068-0.032-0.142-0.032-0.29
			c0-0.195-0.012-0.271-0.233-0.271H9.753v0.563H9.46V15.886z M10.106,16.518c0.155,0,0.231-0.054,0.231-0.195
			c0-0.076-0.034-0.188-0.21-0.188H9.753v0.384L10.106,16.518L10.106,16.518z"/>
		<path fill="#010101" d="M11.41,15.848c0.19,0,0.689,0.082,0.689,0.756S11.6,17.36,11.41,17.36c-0.189,0-0.689-0.082-0.689-0.756
			S11.22,15.848,11.41,15.848z M11.41,17.105c0.162,0,0.39-0.1,0.39-0.502c0-0.401-0.228-0.502-0.39-0.502
			c-0.162,0-0.39,0.101-0.39,0.502C11.02,17.006,11.248,17.105,11.41,17.105z"/>
		<path fill="#010101" d="M12.56,17.321h-0.3v-1.436h0.655c0.277,0,0.445,0.179,0.445,0.46c0,0.13-0.071,0.458-0.457,0.458H12.56
			V17.321z M12.837,16.556c0.224,0,0.224-0.16,0.224-0.224c0-0.14-0.077-0.198-0.264-0.198H12.56v0.422H12.837z"/>
		<path fill="#010101" d="M8.096,17.886h0.726c0.382,0,0.451,0.282,0.451,0.406c0,0.158-0.08,0.294-0.222,0.342
			c0.118,0.052,0.182,0.096,0.182,0.363c0,0.21,0,0.263,0.064,0.286v0.038H8.965c-0.021-0.068-0.032-0.142-0.032-0.29
			c0-0.195-0.012-0.271-0.233-0.271H8.39v0.563H8.096V17.886z M8.742,18.518c0.155,0,0.231-0.054,0.231-0.195
			c0-0.076-0.034-0.188-0.21-0.188H8.39v0.384L8.742,18.518L8.742,18.518z"/>
		<path fill="#010101" d="M10.515,18.14H9.753v0.302h0.7v0.254h-0.7v0.372h0.796v0.254H9.46v-1.438h1.055V18.14z"/>
		<path fill="#010101" d="M11.014,19.321h-0.3v-1.436h1.021v0.254h-0.722v0.324h0.631v0.254h-0.631L11.014,19.321L11.014,19.321z"/>
		<path fill="#010101" d="M12.911,18.14h-0.762v0.302h0.7v0.254h-0.7v0.372h0.796v0.254h-1.089v-1.438h1.055V18.14z"/>
		<path fill="#010101" d="M13.11,17.886h0.726c0.382,0,0.451,0.282,0.451,0.406c0,0.158-0.08,0.294-0.222,0.342
			c0.118,0.052,0.182,0.096,0.182,0.363c0,0.21,0,0.263,0.064,0.286v0.038h-0.332c-0.021-0.068-0.032-0.142-0.032-0.29
			c0-0.195-0.012-0.271-0.233-0.271h-0.311v0.563H13.11V17.886z M13.755,18.518c0.155,0,0.231-0.054,0.231-0.195
			c0-0.076-0.034-0.188-0.21-0.188h-0.374v0.384L13.755,18.518L13.755,18.518z"/>
		<path fill="#010101" d="M15.529,18.14h-0.762v0.302h0.7v0.254h-0.7v0.372h0.796v0.254h-1.089v-1.438h1.055V18.14z"/>
		<path fill="#010101" d="M16.603,17.886h0.28v1.438h-0.3L15.997,18.3h-0.004v1.023h-0.28v-1.438h0.316l0.569,1h0.004L16.603,17.886
			L16.603,17.886z"/>
		<path fill="#010101" d="M18.008,18.355c-0.024-0.086-0.07-0.247-0.317-0.247c-0.145,0-0.356,0.096-0.356,0.501
			c0,0.258,0.103,0.49,0.356,0.49c0.165,0,0.281-0.094,0.317-0.271h0.3c-0.06,0.313-0.264,0.53-0.624,0.53
			c-0.382,0-0.655-0.258-0.655-0.754c0-0.502,0.29-0.758,0.66-0.758c0.43,0,0.604,0.296,0.619,0.508L18.008,18.355L18.008,18.355z"
			/>
		<path fill="#010101" d="M19.512,18.14H18.75v0.302h0.7v0.254h-0.7v0.372h0.796v0.254h-1.089v-1.438h1.055V18.14z"/>
		<path fill="#010101" d="M8.372,21.321h-0.3v-0.292h0.3V21.321z"/>
		<path fill="#010101" d="M8.786,20.88c0.002,0.08,0.042,0.231,0.304,0.231c0.143,0,0.3-0.034,0.3-0.186
			c0-0.112-0.107-0.143-0.26-0.178l-0.153-0.036C8.744,20.657,8.52,20.605,8.52,20.29c0-0.16,0.086-0.442,0.552-0.442
			c0.439,0,0.558,0.288,0.56,0.464H9.343c-0.008-0.063-0.032-0.216-0.294-0.216c-0.113,0-0.25,0.042-0.25,0.172
			c0,0.112,0.093,0.136,0.152,0.15l0.35,0.086c0.196,0.048,0.376,0.128,0.376,0.386c0,0.433-0.439,0.47-0.565,0.47
			c-0.524,0-0.614-0.302-0.614-0.479L8.786,20.88L8.786,20.88z"/>
		<path fill="#010101" d="M10.396,21.321h-0.3V20.14H9.663v-0.254h1.167v0.254h-0.434V21.321z"/>
		<path fill="#010101" d="M11.228,21.062h0.713v0.261h-1.013v-1.437h0.3V21.062z"/>
		<path fill="#010101" d="M12.834,20.678v0.645h-0.3v-1.437h0.3v0.544h0.56v-0.544h0.301v1.437h-0.301v-0.645H12.834z"/>
		<path fill="#010101" d="M14.964,20.14h-0.762v0.302h0.7v0.254h-0.7v0.372h0.796v0.255H13.91v-1.437h1.055L14.964,20.14
			L14.964,20.14z"/>
		<path fill="#010101" d="M15.165,19.886h0.726c0.382,0,0.451,0.282,0.451,0.406c0,0.158-0.08,0.294-0.222,0.342
			c0.118,0.052,0.182,0.096,0.182,0.363c0,0.21,0,0.263,0.064,0.286v0.038h-0.332c-0.021-0.068-0.032-0.142-0.032-0.29
			c0-0.195-0.012-0.271-0.233-0.271h-0.311v0.563h-0.293V19.886z M15.81,20.518c0.155,0,0.231-0.054,0.231-0.195
			c0-0.076-0.034-0.188-0.21-0.188h-0.374v0.384L15.81,20.518L15.81,20.518z"/>
		<path fill="#010101" d="M17.583,20.14h-0.762v0.302h0.7v0.254h-0.7v0.372h0.796v0.255h-1.089v-1.437h1.055V20.14z"/>
	</g>
</g>
<g>
	
		<polygon fill="none" stroke="#231F20" stroke-width="0.03" stroke-linecap="round" stroke-linejoin="round" stroke-miterlimit="10" points="
		32.245,10.93 18.333,8.272 8.174,10.155 4.709,20.057 6.056,27.276 19.428,28.864 26.387,34.206 37.338,20.018 	"/>
	<g>
		
			<polygon id="triangle36_108_" fill="none" stroke="#231F20" stroke-width="0.03" stroke-linecap="round" stroke-linejoin="round" stroke-miterlimit="10" points="
			13.54,24.592 6.056,27.276 4.709,20.057 		"/>
		
			<polygon id="triangle36_107_" fill="none" stroke="#231F20" stroke-width="0.03" stroke-linecap="round" stroke-linejoin="round" stroke-miterlimit="10" points="
			25.034,18.962 24.225,13.882 32.245,10.93 		"/>
		
			<polygon id="triangle36_106_" fill="none" stroke="#231F20" stroke-width="0.03" stroke-linecap="round" stroke-linejoin="round" stroke-miterlimit="10" points="
			13.54,24.592 6.056,27.276 19.428,28.864 		"/>
		
			<polygon id="triangle36_105_" fill="none" stroke="#231F20" stroke-width="0.03" stroke-linecap="round" stroke-linejoin="round" stroke-miterlimit="10" points="
			13.54,24.592 4.709,20.057 11.927,17.373 		"/>
		
			<polygon id="triangle36_104_" fill="none" stroke="#231F20" stroke-width="0.03" stroke-linecap="round" stroke-linejoin="round" stroke-miterlimit="10" points="
			8.174,10.155 4.709,20.057 11.927,17.373 		"/>
		
			<polygon id="triangle36_103_" fill="none" stroke="#231F20" stroke-width="0.03" stroke-linecap="round" stroke-linejoin="round" stroke-miterlimit="10" points="
			32.245,10.93 25.034,18.962 37.338,20.018 		"/>
		
			<polygon id="triangle36_102_" fill="none" stroke="#231F20" stroke-width="0.03" stroke-linecap="round" stroke-linejoin="round" stroke-miterlimit="10" points="
			32.245,10.93 24.225,13.882 18.333,8.272 		"/>
		
			<polygon id="triangle36_101_" fill="none" stroke="#231F20" stroke-width="0.03" stroke-linecap="round" stroke-linejoin="round" stroke-miterlimit="10" points="
			24.225,13.882 11.927,17.373 18.333,8.272 		"/>
		
			<polygon id="triangle36_100_" fill="none" stroke="#231F20" stroke-width="0.03" stroke-linecap="round" stroke-linejoin="round" stroke-miterlimit="10" points="
			11.927,17.373 8.174,10.155 18.333,8.272 		"/>
		
			<polygon id="triangle36_99_" fill="none" stroke="#231F20" stroke-width="0.03" stroke-linecap="round" stroke-linejoin="round" stroke-miterlimit="10" points="
			37.338,20.018 25.034,18.962 26.387,34.206 		"/>
		
			<polygon id="triangle36_98_" fill="none" stroke="#231F20" stroke-width="0.03" stroke-linecap="round" stroke-linejoin="round" stroke-miterlimit="10" points="
			25.034,18.962 19.428,28.864 26.387,34.206 		"/>
		
			<polygon id="triangle36_97_" fill="none" stroke="#231F20" stroke-width="0.03" stroke-linecap="round" stroke-linejoin="round" stroke-miterlimit="10" points="
			25.034,18.962 24.225,13.882 19.152,21.377 		"/>
		
			<polygon id="triangle36_96_" fill="none" stroke="#231F20" stroke-width="0.03" stroke-linecap="round" stroke-linejoin="round" stroke-miterlimit="10" points="
			25.034,18.962 19.428,28.864 19.152,21.377 		"/>
		
			<polygon id="triangle36_95_" fill="none" stroke="#231F20" stroke-width="0.03" stroke-linecap="round" stroke-linejoin="round" stroke-miterlimit="10" points="
			24.225,13.882 11.927,17.373 19.152,21.377 		"/>
		
			<polygon id="triangle36_94_" fill="none" stroke="#231F20" stroke-width="0.03" stroke-linecap="round" stroke-linejoin="round" stroke-miterlimit="10" points="
			19.428,28.864 13.54,24.592 19.152,21.377 		"/>
		
			<polygon id="triangle36_93_" fill="none" stroke="#231F20" stroke-width="0.03" stroke-linecap="round" stroke-linejoin="round" stroke-miterlimit="10" points="
			13.54,24.592 11.927,17.373 19.152,21.377 		"/>
	</g>
</g>
<g>
	<path fill="#F8F8F8" d="M10.338,16.322c0-0.076-0.035-0.188-0.211-0.188H9.754v0.384h0.352
		C10.262,16.518,10.338,16.464,10.338,16.322z"/>
	<path fill="#F8F8F8" d="M9.008,16.592c0-0.424-0.203-0.458-0.33-0.458H8.39v0.939h0.292C8.926,17.073,9.008,16.827,9.008,16.592z"
		/>
	<path fill="#F8F8F8" d="M8.973,18.322c0-0.076-0.033-0.188-0.209-0.188H8.39v0.384h0.353C8.896,18.518,8.973,18.464,8.973,18.322z"
		/>
	<path fill="#F8F8F8" d="M11.41,17.105c0.162,0,0.389-0.1,0.389-0.502c0-0.401-0.227-0.502-0.389-0.502
		c-0.162,0-0.391,0.101-0.391,0.502C11.02,17.006,11.248,17.105,11.41,17.105z"/>
	<path fill="#F8F8F8" d="M13.061,16.332c0-0.14-0.076-0.198-0.264-0.198h-0.236v0.422h0.277
		C13.061,16.556,13.061,16.396,13.061,16.332z"/>
	<path fill="#F8F8F8" d="M13.986,18.322c0-0.076-0.033-0.188-0.209-0.188h-0.375v0.384h0.354
		C13.91,18.518,13.986,18.464,13.986,18.322z"/>
	<path fill="#F8F8F8" d="M15.832,20.135h-0.375v0.383h0.354c0.154,0,0.23-0.053,0.23-0.195
		C16.041,20.246,16.008,20.135,15.832,20.135z"/>
	<path fill="#F8F8F8" d="M7.693,15.511v6.251h12.313v-6.251H7.693z M15.713,17.886h0.316l0.57,1h0.004v-1h0.279v1.437h-0.299
		l-0.586-1.023h-0.004v1.023h-0.281L15.713,17.886L15.713,17.886z M14.475,17.886h1.055v0.254h-0.762v0.302h0.699v0.254h-0.699
		v0.372h0.795v0.254h-1.088V17.886z M12.26,15.886h0.656c0.277,0,0.445,0.179,0.445,0.46c0,0.13-0.072,0.458-0.457,0.458H12.56
		v0.518h-0.3V15.886z M12.85,18.441v0.254h-0.701v0.372h0.797v0.254h-1.09v-1.436h1.055v0.254h-0.762v0.302H12.85z M11.41,15.848
		c0.189,0,0.689,0.082,0.689,0.756s-0.5,0.756-0.689,0.756s-0.689-0.082-0.689-0.756S11.221,15.848,11.41,15.848z M10.715,17.886
		h1.021v0.254h-0.723v0.324h0.631v0.254h-0.631v0.604h-0.299L10.715,17.886L10.715,17.886z M9.461,15.886h0.725
		c0.383,0,0.451,0.282,0.451,0.406c0,0.158-0.08,0.294-0.221,0.342c0.117,0.052,0.182,0.096,0.182,0.363c0,0.21,0,0.263,0.064,0.286
		v0.038H10.33c-0.021-0.068-0.033-0.142-0.033-0.29c0-0.195-0.012-0.271-0.232-0.271H9.754v0.563H9.461V15.886z M9.461,17.886h1.055
		v0.254H9.754v0.302h0.699v0.254H9.754v0.372h0.795v0.254H9.461V17.886z M8.096,15.886h0.633c0.484,0,0.584,0.412,0.584,0.684
		c0,0.309-0.121,0.752-0.596,0.752H8.096V15.886z M8.371,21.323H8.072V21.03h0.299V21.323z M8.39,19.321H8.096v-1.436h0.727
		c0.381,0,0.451,0.282,0.451,0.406c0,0.158-0.08,0.294-0.223,0.342c0.119,0.052,0.182,0.096,0.182,0.363c0,0.21,0,0.263,0.064,0.286
		v0.038H8.965c-0.02-0.068-0.031-0.142-0.031-0.29c0-0.195-0.012-0.271-0.234-0.271H8.39V19.321z M9.111,21.36
		c-0.523,0-0.613-0.301-0.613-0.479h0.287c0.002,0.08,0.043,0.23,0.305,0.23c0.143,0,0.299-0.033,0.299-0.186
		c0-0.111-0.107-0.143-0.26-0.178l-0.152-0.035C8.745,20.657,8.52,20.605,8.52,20.29c0-0.16,0.086-0.443,0.553-0.443
		c0.439,0,0.557,0.289,0.559,0.465H9.344c-0.008-0.064-0.033-0.217-0.295-0.217c-0.113,0-0.25,0.043-0.25,0.172
		c0,0.113,0.094,0.137,0.152,0.15l0.35,0.086c0.197,0.049,0.377,0.129,0.377,0.387C9.678,21.323,9.238,21.36,9.111,21.36z
		 M10.83,20.141h-0.434v1.182h-0.301v-1.182H9.662v-0.254h1.168V20.141z M11.941,21.323h-1.014v-1.436h0.301v1.176h0.713V21.323z
		 M13.695,21.323h-0.301v-0.645h-0.561v0.645h-0.299v-1.436h0.299v0.543h0.561v-0.543h0.301V21.323z M13.402,18.76v0.563h-0.293
		v-1.437h0.727c0.381,0,0.451,0.282,0.451,0.406c0,0.158-0.08,0.294-0.223,0.342c0.119,0.052,0.182,0.096,0.182,0.363
		c0,0.21,0,0.263,0.064,0.286v0.038h-0.332c-0.02-0.068-0.031-0.142-0.031-0.29c0-0.195-0.012-0.271-0.234-0.271H13.402z
		 M14.998,21.323H13.91v-1.436h1.055v0.254h-0.762v0.301h0.699v0.254h-0.699v0.373h0.795V21.323z M17.691,19.1
		c0.164,0,0.281-0.094,0.316-0.271h0.301c-0.061,0.313-0.264,0.53-0.625,0.53c-0.381,0-0.654-0.258-0.654-0.754
		c0-0.502,0.289-0.758,0.66-0.758c0.43,0,0.604,0.296,0.619,0.508h-0.301c-0.023-0.086-0.07-0.247-0.316-0.247
		c-0.145,0-0.357,0.096-0.357,0.501C17.334,18.867,17.438,19.1,17.691,19.1z M19.547,19.321h-1.09v-1.436h1.055v0.254H18.75v0.302
		h0.701v0.254H18.75v0.372h0.797V19.321z"/>
</g>
<g>
	<rect x="7.693" y="15.511" fill="#F8F8F8" width="12.313" height="6.25"/>
	<g>
		<path fill="#787878" d="M8.096,15.886h0.633c0.484,0,0.584,0.412,0.584,0.684c0,0.31-0.122,0.753-0.596,0.753H8.096V15.886z
			 M8.39,17.073h0.292c0.244,0,0.326-0.246,0.326-0.48c0-0.424-0.202-0.458-0.33-0.458H8.39V17.073z"/>
		<path fill="#787878" d="M9.459,15.886h0.726c0.382,0,0.451,0.282,0.451,0.406c0,0.158-0.08,0.294-0.222,0.341
			c0.118,0.053,0.182,0.097,0.182,0.363c0,0.211,0,0.264,0.064,0.287v0.037h-0.33c-0.021-0.068-0.032-0.142-0.032-0.289
			c0-0.195-0.012-0.271-0.233-0.271H9.752v0.563H9.459V15.886z M10.105,16.519c0.155,0,0.231-0.055,0.231-0.195
			c0-0.076-0.034-0.188-0.21-0.188H9.752v0.384L10.105,16.519L10.105,16.519z"/>
		<path fill="#787878" d="M11.41,15.849c0.19,0,0.689,0.082,0.689,0.756S11.6,17.36,11.41,17.36c-0.189,0-0.689-0.082-0.689-0.756
			S11.22,15.849,11.41,15.849z M11.41,17.105c0.162,0,0.39-0.101,0.39-0.502s-0.228-0.502-0.39-0.502
			c-0.162,0-0.39,0.101-0.39,0.502C11.02,17.007,11.248,17.105,11.41,17.105z"/>
		<path fill="#787878" d="M12.56,17.321h-0.3v-1.436h0.655c0.277,0,0.445,0.179,0.445,0.46c0,0.13-0.071,0.458-0.457,0.458H12.56
			V17.321z M12.836,16.557c0.224,0,0.224-0.16,0.224-0.224c0-0.14-0.077-0.198-0.264-0.198H12.56v0.422H12.836z"/>
		<path fill="#787878" d="M8.372,21.321h-0.3v-0.292h0.3V21.321z"/>
		<path fill="#787878" d="M8.786,20.88c0.002,0.08,0.042,0.231,0.304,0.231c0.143,0,0.3-0.034,0.3-0.187
			c0-0.111-0.107-0.143-0.26-0.178l-0.153-0.035C8.744,20.657,8.52,20.605,8.52,20.29c0-0.16,0.086-0.441,0.552-0.441
			c0.439,0,0.558,0.287,0.56,0.464h-0.29c-0.008-0.063-0.032-0.216-0.294-0.216c-0.113,0-0.25,0.042-0.25,0.172
			c0,0.111,0.093,0.136,0.152,0.15l0.35,0.086c0.196,0.047,0.376,0.127,0.376,0.386c0,0.432-0.439,0.469-0.565,0.469
			c-0.524,0-0.614-0.301-0.614-0.478h0.288L8.786,20.88L8.786,20.88z"/>
		<path fill="#787878" d="M10.396,21.321h-0.3v-1.18H9.663v-0.255h1.167v0.255h-0.434V21.321z"/>
		<path fill="#787878" d="M11.228,21.063h0.713v0.26h-1.013v-1.437h0.3V21.063z"/>
		<path fill="#787878" d="M12.833,20.679v0.644h-0.3v-1.437h0.3v0.545h0.56v-0.545h0.301v1.437h-0.301v-0.644H12.833z"/>
		<path fill="#787878" d="M14.963,20.141h-0.762v0.302h0.7v0.254h-0.7v0.372h0.796v0.254H13.91v-1.437h1.055L14.963,20.141
			L14.963,20.141z"/>
		<path fill="#787878" d="M15.165,19.886h0.726c0.382,0,0.451,0.283,0.451,0.406c0,0.158-0.08,0.295-0.222,0.342
			c0.118,0.053,0.182,0.097,0.182,0.363c0,0.211,0,0.264,0.064,0.287v0.037h-0.332c-0.021-0.068-0.032-0.141-0.032-0.289
			c0-0.195-0.012-0.271-0.233-0.271h-0.311v0.562h-0.293V19.886z M15.81,20.519c0.155,0,0.231-0.055,0.231-0.195
			c0-0.076-0.034-0.188-0.21-0.188h-0.374v0.384L15.81,20.519L15.81,20.519z"/>
		<path fill="#787878" d="M17.583,20.141H16.82v0.302h0.7v0.254h-0.7v0.372h0.796v0.254h-1.089v-1.437h1.055L17.583,20.141
			L17.583,20.141z"/>
	</g>
</g>
<g>
	<path fill="#787878" d="M8.359,18.881c0.002,0.08,0.042,0.231,0.304,0.231c0.142,0,0.3-0.033,0.3-0.185
		c0-0.112-0.108-0.143-0.26-0.178l-0.154-0.036c-0.232-0.055-0.456-0.106-0.456-0.422c0-0.16,0.086-0.442,0.551-0.442
		c0.44,0,0.558,0.288,0.56,0.464H8.917c-0.009-0.063-0.032-0.216-0.294-0.216c-0.114,0-0.25,0.042-0.25,0.172
		c0,0.112,0.092,0.136,0.152,0.15l0.35,0.086c0.195,0.048,0.375,0.128,0.375,0.386c0,0.432-0.439,0.469-0.565,0.469
		c-0.523,0-0.613-0.301-0.613-0.479H8.359z"/>
	<path fill="#787878" d="M10.549,18.82c0,0.377-0.229,0.54-0.59,0.54c-0.132,0-0.328-0.031-0.456-0.174
		c-0.078-0.088-0.108-0.204-0.112-0.347v-0.952h0.307v0.932c0,0.2,0.115,0.288,0.256,0.288c0.205,0,0.289-0.099,0.289-0.273v-0.946
		h0.307V18.82z"/>
	<path fill="#787878" d="M10.764,17.887h0.697c0.352,0,0.441,0.221,0.441,0.368c0,0.206-0.115,0.264-0.176,0.294
		c0.176,0.065,0.222,0.206,0.222,0.348c0,0.114-0.048,0.221-0.124,0.295c-0.081,0.08-0.159,0.131-0.453,0.131h-0.607V17.887z
		 M11.051,18.449h0.353c0.117,0,0.212-0.047,0.212-0.16c0-0.118-0.084-0.154-0.221-0.154h-0.344V18.449z M11.051,19.075h0.368
		c0.146,0,0.229-0.064,0.229-0.21c0-0.126-0.107-0.174-0.216-0.174h-0.382V19.075z"/>
	<path fill="#787878" d="M12.944,18.906c0,0.303-0.158,0.452-0.446,0.452c-0.478,0-0.478-0.303-0.478-0.578h0.28
		c0,0.227,0.016,0.335,0.176,0.335c0.155,0,0.168-0.099,0.168-0.209v-1.02h0.3V18.906z"/>
	<path fill="#787878" d="M14.215,18.141h-0.762v0.302h0.7v0.254h-0.7v0.373h0.796v0.254h-1.089v-1.436h1.055V18.141z"/>
	<path fill="#787878" d="M15.33,18.356c-0.024-0.086-0.07-0.247-0.317-0.247c-0.145,0-0.356,0.096-0.356,0.501
		c0,0.258,0.103,0.49,0.356,0.49c0.165,0,0.281-0.093,0.317-0.27h0.3c-0.06,0.313-0.264,0.53-0.624,0.53
		c-0.382,0-0.655-0.258-0.655-0.753c0-0.502,0.29-0.758,0.66-0.758c0.43,0,0.604,0.296,0.619,0.508H15.33z"/>
	<path fill="#787878" d="M16.388,19.323h-0.3v-1.182h-0.434v-0.254h1.167v0.254h-0.434V19.323z"/>
</g>
</svg>
