<?xml version="1.0" encoding="utf-8"?>
<!-- Generator: Adobe Illustrator 16.0.0, SVG Export Plug-In . SVG Version: 6.00 Build 0)  -->
<!DOCTYPE svg PUBLIC "-//W3C//DTD SVG 1.1//EN" "http://www.w3.org/Graphics/SVG/1.1/DTD/svg11.dtd">
<svg version="1.1" id="Layer_1" xmlns="http://www.w3.org/2000/svg" xmlns:xlink="http://www.w3.org/1999/xlink" x="0px" y="0px"
	 width="41.583px" height="41.583px" viewBox="0 0 41.583 41.583" enable-background="new 0 0 41.583 41.583" xml:space="preserve">
<g id="Layer_3" display="none">
	<rect x="13.944" y="12.886" display="inline" fill="none" width="12.844" height="5.813"/>
	
		<text transform="matrix(1 0 0 1 13.9438 14.3228)" display="inline" fill="#010101" font-family="'HelveticaLTStd-Bold'" font-size="2">DROP  </text>
	
		<text transform="matrix(1 0 0 1 13.9438 16.3228)" display="inline" fill="#010101" font-family="'HelveticaLTStd-Bold'" font-size="2">REFERENCE </text>
	
		<text transform="matrix(1 0 0 1 13.9438 18.3228)" display="inline" fill="#010101" font-family="'HelveticaLTStd-Bold'" font-size="2">.STL HERE</text>
</g>
<g id="Layer_1_1_" display="none">
	
		<polygon display="inline" fill="none" stroke="#231F20" stroke-width="0.03" stroke-linecap="round" stroke-linejoin="round" stroke-miterlimit="10" points="
		34.933,12.108 23.668,9.579 17.919,9.579 13.552,10.729 10.563,8.891 4.125,15.786 9.643,29.122 13.092,31.881 24.586,33.719 
		26.196,29.813 27.806,28.894 30.793,26.364 37.92,19.235 	"/>
	<g display="inline">
		
			<polygon id="triangle36_164_" fill="none" stroke="#231F20" stroke-width="0.03" stroke-linecap="round" stroke-linejoin="round" stroke-miterlimit="10" points="
			24.586,33.719 19.53,24.983 26.196,29.813 		"/>
		
			<polygon id="triangle36_163_" fill="none" stroke="#231F20" stroke-width="0.03" stroke-linecap="round" stroke-linejoin="round" stroke-miterlimit="10" points="
			18.379,21.076 19.53,24.983 21.829,19.006 		"/>
		
			<polygon id="triangle36_162_" fill="none" stroke="#231F20" stroke-width="0.03" stroke-linecap="round" stroke-linejoin="round" stroke-miterlimit="10" points="
			18.379,21.076 9.643,29.122 19.53,24.983 		"/>
		
			<polygon id="triangle36_161_" fill="none" stroke="#231F20" stroke-width="0.03" stroke-linecap="round" stroke-linejoin="round" stroke-miterlimit="10" points="
			18.379,21.076 4.125,15.786 9.643,29.122 		"/>
		
			<polygon id="triangle36_160_" fill="none" stroke="#231F20" stroke-width="0.03" stroke-linecap="round" stroke-linejoin="round" stroke-miterlimit="10" points="
			17.919,9.579 18.379,21.076 21.829,19.006 		"/>
		
			<polygon id="triangle36_159_" fill="none" stroke="#231F20" stroke-width="0.03" stroke-linecap="round" stroke-linejoin="round" stroke-miterlimit="10" points="
			27.346,25.674 26.196,29.813 27.806,28.894 		"/>
		
			<polygon id="triangle36_158_" fill="none" stroke="#231F20" stroke-width="0.03" stroke-linecap="round" stroke-linejoin="round" stroke-miterlimit="10" points="
			27.346,25.674 19.53,24.983 26.196,29.813 		"/>
		
			<polygon id="triangle36_157_" fill="none" stroke="#231F20" stroke-width="0.03" stroke-linecap="round" stroke-linejoin="round" stroke-miterlimit="10" points="
			27.346,25.674 19.53,24.983 21.829,19.006 		"/>
		
			<polygon id="triangle36_155_" fill="none" stroke="#231F20" stroke-width="0.03" stroke-linecap="round" stroke-linejoin="round" stroke-miterlimit="10" points="
			13.552,10.729 17.919,9.579 18.379,21.076 		"/>
		
			<polygon id="triangle36_153_" fill="none" stroke="#231F20" stroke-width="0.03" stroke-linecap="round" stroke-linejoin="round" stroke-miterlimit="10" points="
			13.552,10.729 4.125,15.786 18.379,21.076 		"/>
		
			<polygon id="triangle36_151_" fill="none" stroke="#231F20" stroke-width="0.03" stroke-linecap="round" stroke-linejoin="round" stroke-miterlimit="10" points="
			13.552,10.729 4.125,15.786 10.563,8.891 		"/>
		
			<polygon id="triangle36_150_" fill="none" stroke="#231F20" stroke-width="0.03" stroke-linecap="round" stroke-linejoin="round" stroke-miterlimit="10" points="
			13.092,31.881 19.53,24.983 24.586,33.719 		"/>
		
			<polygon id="triangle36_149_" fill="none" stroke="#231F20" stroke-width="0.03" stroke-linecap="round" stroke-linejoin="round" stroke-miterlimit="10" points="
			13.092,31.881 9.643,29.122 19.53,24.983 		"/>
		
			<polygon id="triangle36_148_" fill="none" stroke="#231F20" stroke-width="0.03" stroke-linecap="round" stroke-linejoin="round" stroke-miterlimit="10" points="
			23.668,9.579 17.919,9.579 21.829,19.006 		"/>
		
			<polygon id="triangle36_147_" fill="none" stroke="#231F20" stroke-width="0.03" stroke-linecap="round" stroke-linejoin="round" stroke-miterlimit="10" points="
			30.793,26.364 27.346,25.674 37.92,19.235 		"/>
		
			<polygon id="triangle36_146_" fill="none" stroke="#231F20" stroke-width="0.03" stroke-linecap="round" stroke-linejoin="round" stroke-miterlimit="10" points="
			30.793,26.364 27.346,25.674 27.806,28.894 		"/>
		
			<polygon id="triangle36_145_" fill="none" stroke="#231F20" stroke-width="0.03" stroke-linecap="round" stroke-linejoin="round" stroke-miterlimit="10" points="
			34.933,12.108 27.346,25.674 37.92,19.235 		"/>
		
			<polygon id="triangle36_144_" fill="none" stroke="#231F20" stroke-width="0.03" stroke-linecap="round" stroke-linejoin="round" stroke-miterlimit="10" points="
			34.933,12.108 21.829,19.006 27.346,25.674 		"/>
		
			<polygon id="triangle36_143_" fill="none" stroke="#231F20" stroke-width="0.03" stroke-linecap="round" stroke-linejoin="round" stroke-miterlimit="10" points="
			34.933,12.108 21.829,19.006 23.668,9.579 		"/>
	</g>
	<rect x="7.694" y="15.511" display="inline" fill="#FFFFFF" width="12.313" height="6.25"/>
	<g display="inline">
		<path fill="#010101" d="M8.096,15.886h0.633c0.484,0,0.584,0.412,0.584,0.684c0,0.309-0.122,0.752-0.596,0.752H8.096V15.886z
			 M8.39,17.073h0.292c0.244,0,0.326-0.246,0.326-0.481c0-0.424-0.202-0.458-0.33-0.458H8.39V17.073z"/>
		<path fill="#010101" d="M9.46,15.886h0.726c0.382,0,0.451,0.282,0.451,0.406c0,0.158-0.08,0.294-0.222,0.342
			c0.118,0.052,0.182,0.096,0.182,0.363c0,0.21,0,0.263,0.064,0.286v0.038H10.33c-0.021-0.068-0.032-0.142-0.032-0.29
			c0-0.195-0.012-0.271-0.233-0.271H9.753v0.563H9.46V15.886z M10.106,16.518c0.155,0,0.231-0.054,0.231-0.195
			c0-0.076-0.034-0.188-0.21-0.188H9.753v0.384L10.106,16.518L10.106,16.518z"/>
		<path fill="#010101" d="M11.41,15.848c0.19,0,0.689,0.082,0.689,0.756S11.6,17.36,11.41,17.36c-0.189,0-0.689-0.082-0.689-0.756
			S11.22,15.848,11.41,15.848z M11.41,17.105c0.162,0,0.39-0.1,0.39-0.502c0-0.401-0.228-0.502-0.39-0.502
			c-0.162,0-0.39,0.101-0.39,0.502C11.02,17.006,11.248,17.105,11.41,17.105z"/>
		<path fill="#010101" d="M12.56,17.321h-0.3v-1.436h0.655c0.277,0,0.445,0.179,0.445,0.46c0,0.13-0.071,0.458-0.457,0.458H12.56
			V17.321z M12.837,16.556c0.224,0,0.224-0.16,0.224-0.224c0-0.14-0.077-0.198-0.264-0.198H12.56v0.422H12.837z"/>
		<path fill="#010101" d="M8.096,17.886h0.726c0.382,0,0.451,0.282,0.451,0.406c0,0.158-0.08,0.294-0.222,0.342
			c0.118,0.052,0.182,0.096,0.182,0.363c0,0.21,0,0.263,0.064,0.286v0.038H8.965c-0.021-0.068-0.032-0.142-0.032-0.29
			c0-0.195-0.012-0.271-0.233-0.271H8.39v0.563H8.096V17.886z M8.742,18.518c0.155,0,0.231-0.054,0.231-0.195
			c0-0.076-0.034-0.188-0.21-0.188H8.39v0.384L8.742,18.518L8.742,18.518z"/>
		<path fill="#010101" d="M10.515,18.14H9.753v0.302h0.7v0.254h-0.7v0.372h0.796v0.254H9.46v-1.438h1.055V18.14z"/>
		<path fill="#010101" d="M11.014,19.321h-0.3v-1.436h1.021v0.254h-0.722v0.324h0.631v0.254h-0.631L11.014,19.321L11.014,19.321z"/>
		<path fill="#010101" d="M12.911,18.14h-0.762v0.302h0.7v0.254h-0.7v0.372h0.796v0.254h-1.089v-1.438h1.055V18.14z"/>
		<path fill="#010101" d="M13.11,17.886h0.726c0.382,0,0.451,0.282,0.451,0.406c0,0.158-0.08,0.294-0.222,0.342
			c0.118,0.052,0.182,0.096,0.182,0.363c0,0.21,0,0.263,0.064,0.286v0.038h-0.332c-0.021-0.068-0.032-0.142-0.032-0.29
			c0-0.195-0.012-0.271-0.233-0.271h-0.311v0.563H13.11V17.886z M13.755,18.518c0.155,0,0.231-0.054,0.231-0.195
			c0-0.076-0.034-0.188-0.21-0.188h-0.374v0.384L13.755,18.518L13.755,18.518z"/>
		<path fill="#010101" d="M15.529,18.14h-0.762v0.302h0.7v0.254h-0.7v0.372h0.796v0.254h-1.089v-1.438h1.055V18.14z"/>
		<path fill="#010101" d="M16.603,17.886h0.28v1.438h-0.3L15.997,18.3h-0.004v1.023h-0.28v-1.438h0.316l0.569,1h0.004L16.603,17.886
			L16.603,17.886z"/>
		<path fill="#010101" d="M18.008,18.355c-0.024-0.086-0.07-0.247-0.317-0.247c-0.145,0-0.356,0.096-0.356,0.501
			c0,0.258,0.103,0.49,0.356,0.49c0.165,0,0.281-0.094,0.317-0.271h0.3c-0.06,0.313-0.264,0.53-0.624,0.53
			c-0.382,0-0.655-0.258-0.655-0.754c0-0.502,0.29-0.758,0.66-0.758c0.43,0,0.604,0.296,0.619,0.508L18.008,18.355L18.008,18.355z"
			/>
		<path fill="#010101" d="M19.512,18.14H18.75v0.302h0.7v0.254h-0.7v0.372h0.796v0.254h-1.089v-1.438h1.055V18.14z"/>
		<path fill="#010101" d="M8.372,21.321h-0.3v-0.292h0.3V21.321z"/>
		<path fill="#010101" d="M8.786,20.88c0.002,0.08,0.042,0.231,0.304,0.231c0.143,0,0.3-0.034,0.3-0.186
			c0-0.112-0.107-0.143-0.26-0.178l-0.153-0.036C8.744,20.657,8.52,20.605,8.52,20.29c0-0.16,0.086-0.442,0.552-0.442
			c0.439,0,0.558,0.288,0.56,0.464H9.343c-0.008-0.063-0.032-0.216-0.294-0.216c-0.113,0-0.25,0.042-0.25,0.172
			c0,0.112,0.093,0.136,0.152,0.15l0.35,0.086c0.196,0.048,0.376,0.128,0.376,0.386c0,0.433-0.439,0.47-0.565,0.47
			c-0.524,0-0.614-0.302-0.614-0.479L8.786,20.88L8.786,20.88z"/>
		<path fill="#010101" d="M10.396,21.321h-0.3V20.14H9.663v-0.254h1.167v0.254h-0.434V21.321z"/>
		<path fill="#010101" d="M11.228,21.062h0.713v0.261h-1.013v-1.437h0.3V21.062z"/>
		<path fill="#010101" d="M12.834,20.678v0.645h-0.3v-1.437h0.3v0.544h0.56v-0.544h0.301v1.437h-0.301v-0.645H12.834z"/>
		<path fill="#010101" d="M14.964,20.14h-0.762v0.302h0.7v0.254h-0.7v0.372h0.796v0.255H13.91v-1.437h1.055L14.964,20.14
			L14.964,20.14z"/>
		<path fill="#010101" d="M15.165,19.886h0.726c0.382,0,0.451,0.282,0.451,0.406c0,0.158-0.08,0.294-0.222,0.342
			c0.118,0.052,0.182,0.096,0.182,0.363c0,0.21,0,0.263,0.064,0.286v0.038h-0.332c-0.021-0.068-0.032-0.142-0.032-0.29
			c0-0.195-0.012-0.271-0.233-0.271h-0.311v0.563h-0.293V19.886z M15.81,20.518c0.155,0,0.231-0.054,0.231-0.195
			c0-0.076-0.034-0.188-0.21-0.188h-0.374v0.384L15.81,20.518L15.81,20.518z"/>
		<path fill="#010101" d="M17.583,20.14h-0.762v0.302h0.7v0.254h-0.7v0.372h0.796v0.255h-1.089v-1.437h1.055V20.14z"/>
	</g>
</g>
<g>
	
		<linearGradient id="SVGID_1_" gradientUnits="userSpaceOnUse" x1="-212.9604" y1="96.1616" x2="-185.6163" y2="123.5058" gradientTransform="matrix(1 0 0 -1 216 132.583)">
		<stop  offset="0" style="stop-color:#618F94"/>
		<stop  offset="1" style="stop-color:#6D969B"/>
	</linearGradient>
	<polygon fill="url(#SVGID_1_)" points="32.245,10.93 18.333,8.272 8.174,10.155 4.709,20.057 6.056,27.276 19.428,28.864 
		26.387,34.206 37.338,20.018 	"/>
	<g>
		
			<linearGradient id="triangle36_1_" gradientUnits="userSpaceOnUse" x1="-882.8154" y1="-20.3335" x2="-882.5472" y2="-20.0652" gradientTransform="matrix(-33 0.0397 -0.0325 -27 -29121.0742 -485.8081)">
			<stop  offset="0" style="stop-color:#5B8A8F"/>
			<stop  offset="1" style="stop-color:#5B898E"/>
		</linearGradient>
		<polygon id="triangle36_108_" fill="url(#triangle36_1_)" points="13.54,24.592 6.056,27.276 4.709,20.057 		"/>
		
			<linearGradient id="triangle36_2_" gradientUnits="userSpaceOnUse" x1="-882.6763" y1="-21.4624" x2="-882.4089" y2="-21.195" gradientTransform="matrix(-30 0.0361 -0.0361 -30 -26448.6172 -593.2642)">
			<stop  offset="0" style="stop-color:#7CA4A6"/>
			<stop  offset="1" style="stop-color:#8BADAD"/>
		</linearGradient>
		<polygon id="triangle36_107_" fill="url(#triangle36_2_)" points="25.034,18.962 24.225,13.882 32.245,10.93 		"/>
		
			<linearGradient id="triangle36_3_" gradientUnits="userSpaceOnUse" x1="-877.3154" y1="-17.1616" x2="-877.0479" y2="-16.8942" gradientTransform="matrix(-50 0.0602 -0.0193 -16 -43846.8594 -192.8433)">
			<stop  offset="0" style="stop-color:#55868E"/>
			<stop  offset="1" style="stop-color:#4C818A"/>
		</linearGradient>
		<polygon id="triangle36_106_" fill="url(#triangle36_3_)" points="13.54,24.592 6.056,27.276 19.428,28.864 		"/>
		
			<linearGradient id="triangle36_4_" gradientUnits="userSpaceOnUse" x1="-882.8774" y1="-20.5415" x2="-882.6091" y2="-20.2732" gradientTransform="matrix(-33 0.0397 -0.0325 -27 -29121.1055 -495.8081)">
			<stop  offset="0" style="stop-color:#618E93"/>
			<stop  offset="1" style="stop-color:#6D9498"/>
		</linearGradient>
		<polygon id="triangle36_105_" fill="url(#triangle36_4_)" points="13.54,24.592 4.709,20.057 11.927,17.373 		"/>
		
			<linearGradient id="triangle36_5_" gradientUnits="userSpaceOnUse" x1="-886.3838" y1="-21.9839" x2="-886.1174" y2="-21.7176" gradientTransform="matrix(-27 0.0325 -0.0445 -37 -23922.3613 -763.2876)">
			<stop  offset="0" style="stop-color:#80A0A0"/>
			<stop  offset="1" style="stop-color:#72979A"/>
		</linearGradient>
		<polygon id="triangle36_104_" fill="url(#triangle36_5_)" points="8.174,10.155 4.709,20.057 11.927,17.373 		"/>
		
			<linearGradient id="triangle36_6_" gradientUnits="userSpaceOnUse" x1="-877.0942" y1="-21.7432" x2="-876.8257" y2="-21.4748" gradientTransform="matrix(-46 0.0554 -0.0409 -34 -40310.7617 -669.9468)">
			<stop  offset="0" style="stop-color:#8AADAD"/>
			<stop  offset="1" style="stop-color:#78A1A4"/>
		</linearGradient>
		<polygon id="triangle36_103_" fill="url(#triangle36_6_)" points="32.245,10.93 25.034,18.962 37.338,20.018 		"/>
		
			<linearGradient id="triangle36_7_" gradientUnits="userSpaceOnUse" x1="-876.2632" y1="-20.8521" x2="-875.9958" y2="-20.5846" gradientTransform="matrix(-52 0.0626 -0.0253 -21 -45534.2422 -369.0933)">
			<stop  offset="0" style="stop-color:#92B2B1"/>
			<stop  offset="1" style="stop-color:#8DADAC"/>
		</linearGradient>
		<polygon id="triangle36_102_" fill="url(#triangle36_7_)" points="32.245,10.93 24.225,13.882 18.333,8.272 		"/>
		
			<linearGradient id="triangle36_8_" gradientUnits="userSpaceOnUse" x1="-877.8638" y1="-21.9707" x2="-877.5951" y2="-21.702" gradientTransform="matrix(-46 0.0554 -0.0409 -34 -40359.793 -679.9155)">
			<stop  offset="0" style="stop-color:#87A9AA"/>
			<stop  offset="1" style="stop-color:#84A6A6"/>
		</linearGradient>
		<polygon id="triangle36_101_" fill="url(#triangle36_8_)" points="24.225,13.882 11.927,17.373 18.333,8.272 		"/>
		
			<linearGradient id="triangle36_9_" gradientUnits="userSpaceOnUse" x1="-880.5166" y1="-21.9302" x2="-880.2491" y2="-21.6627" gradientTransform="matrix(-38 0.0457 -0.0409 -34 -33441.2188 -688.8335)">
			<stop  offset="0" style="stop-color:#7FA0A1"/>
			<stop  offset="1" style="stop-color:#8BA8A6"/>
		</linearGradient>
		<polygon id="triangle36_100_" fill="url(#triangle36_9_)" points="11.927,17.373 8.174,10.155 18.333,8.272 		"/>
		
			<linearGradient id="triangle36_10_" gradientUnits="userSpaceOnUse" x1="-877.1138" y1="-22.1382" x2="-876.8464" y2="-21.8708" gradientTransform="matrix(-46 0.0554 -0.0686 -57 -40311.2617 -1179.2749)">
			<stop  offset="0" style="stop-color:#69979E"/>
			<stop  offset="1" style="stop-color:#578B94"/>
		</linearGradient>
		<polygon id="triangle36_99_" fill="url(#triangle36_10_)" points="37.338,20.018 25.034,18.962 26.387,34.206 		"/>
		
			<linearGradient id="triangle36_11_" gradientUnits="userSpaceOnUse" x1="-885.624" y1="-22.1328" x2="-885.3566" y2="-21.8653" gradientTransform="matrix(-26 0.0313 -0.0686 -57 -23001.1133 -1200.2925)">
			<stop  offset="0" style="stop-color:#619298"/>
			<stop  offset="1" style="stop-color:#437D8A"/>
		</linearGradient>
		<polygon id="triangle36_98_" fill="url(#triangle36_11_)" points="25.034,18.962 19.428,28.864 26.387,34.206 		"/>
		
			<linearGradient id="triangle36_12_" gradientUnits="userSpaceOnUse" x1="-889.0522" y1="-21.0215" x2="-888.7867" y2="-20.7558" gradientTransform="matrix(-22 0.0265 -0.0337 -28 -19535.0293 -543.4243)">
			<stop  offset="0" style="stop-color:#759FA1"/>
			<stop  offset="1" style="stop-color:#789FA2"/>
		</linearGradient>
		<polygon id="triangle36_97_" fill="url(#triangle36_12_)" points="25.034,18.962 24.225,13.882 19.152,21.377 		"/>
		
			<linearGradient id="triangle36_13_" gradientUnits="userSpaceOnUse" x1="-889.0762" y1="-21.2881" x2="-888.8106" y2="-21.0225" gradientTransform="matrix(-22 0.0265 -0.0445 -37 -19535.5391 -735.395)">
			<stop  offset="0" style="stop-color:#6B979B"/>
			<stop  offset="1" style="stop-color:#5C8C93"/>
		</linearGradient>
		<polygon id="triangle36_96_" fill="url(#triangle36_13_)" points="25.034,18.962 19.428,28.864 19.152,21.377 		"/>
		
			<linearGradient id="triangle36_14_" gradientUnits="userSpaceOnUse" x1="-877.9263" y1="-20.9727" x2="-877.6575" y2="-20.704" gradientTransform="matrix(-46 0.0554 -0.0337 -28 -40359.4219 -518.2427)">
			<stop  offset="0" style="stop-color:#7FA4A6"/>
			<stop  offset="1" style="stop-color:#729A9D"/>
		</linearGradient>
		<polygon id="triangle36_95_" fill="url(#triangle36_14_)" points="24.225,13.882 11.927,17.373 19.152,21.377 		"/>
		
			<linearGradient id="triangle36_15_" gradientUnits="userSpaceOnUse" x1="-889.7954" y1="-20.2456" x2="-889.5272" y2="-19.9773" gradientTransform="matrix(-22 0.0265 -0.0337 -28 -19555.998 -515.4087)">
			<stop  offset="0" style="stop-color:#50858E"/>
			<stop  offset="1" style="stop-color:#5F8D93"/>
		</linearGradient>
		<polygon id="triangle36_94_" fill="url(#triangle36_15_)" points="19.428,28.864 13.54,24.592 19.152,21.377 		"/>
		
			<linearGradient id="triangle36_16_" gradientUnits="userSpaceOnUse" x1="-885.6523" y1="-20.5869" x2="-885.3858" y2="-20.3203" gradientTransform="matrix(-27 0.0325 -0.0325 -27 -23894.7598 -501.9204)">
			<stop  offset="0" style="stop-color:#618F94"/>
			<stop  offset="1" style="stop-color:#6D969B"/>
		</linearGradient>
		<polygon id="triangle36_93_" fill="url(#triangle36_16_)" points="13.54,24.592 11.927,17.373 19.152,21.377 		"/>
	</g>
</g>
<g>
	<path fill="#FFFFFF" d="M10.338,16.322c0-0.076-0.035-0.188-0.211-0.188H9.754v0.384h0.352
		C10.262,16.518,10.338,16.464,10.338,16.322z"/>
	<path fill="#FFFFFF" d="M9.008,16.592c0-0.424-0.203-0.458-0.33-0.458H8.39v0.939h0.292C8.926,17.073,9.008,16.827,9.008,16.592z"
		/>
	<path fill="#FFFFFF" d="M11.41,17.105c0.162,0,0.389-0.1,0.389-0.502c0-0.401-0.227-0.502-0.389-0.502
		c-0.162,0-0.391,0.101-0.391,0.502C11.02,17.006,11.248,17.105,11.41,17.105z"/>
	<path fill="#FFFFFF" d="M13.061,16.332c0-0.14-0.076-0.198-0.264-0.198h-0.236v0.422h0.277
		C13.061,16.556,13.061,16.396,13.061,16.332z"/>
	<path fill="#FFFFFF" d="M15.832,20.135h-0.375v0.383h0.354c0.154,0,0.23-0.053,0.23-0.195
		C16.041,20.246,16.008,20.135,15.832,20.135z"/>
</g>
<g>
	<path fill="#FFFFFF" d="M11.433,18.69h-0.382v0.384h0.368c0.146,0,0.229-0.064,0.229-0.21C11.649,18.738,11.542,18.69,11.433,18.69
		z"/>
	<path fill="#FFFFFF" d="M7.693,15.511v6.251h12.313v-6.251H7.693z M14.154,18.442v0.254h-0.7v0.373h0.796v0.254h-1.089v-1.436
		h1.055v0.254h-0.762v0.302H14.154z M12.26,15.886h0.656c0.277,0,0.445,0.179,0.445,0.46c0,0.13-0.072,0.458-0.457,0.458H12.56
		v0.518h-0.3V15.886z M11.41,15.848c0.189,0,0.689,0.082,0.689,0.756s-0.5,0.756-0.689,0.756s-0.689-0.082-0.689-0.756
		S11.221,15.848,11.41,15.848z M9.461,15.886h0.725c0.383,0,0.451,0.282,0.451,0.406c0,0.158-0.08,0.294-0.221,0.342
		c0.117,0.052,0.182,0.096,0.182,0.363c0,0.21,0,0.263,0.064,0.286v0.038H10.33c-0.021-0.068-0.033-0.142-0.033-0.29
		c0-0.195-0.012-0.271-0.232-0.271H9.754v0.563H9.461V15.886z M9.391,17.887h0.307v0.932c0,0.2,0.115,0.288,0.256,0.288
		c0.205,0,0.289-0.099,0.289-0.273v-0.946h0.307v0.934c0,0.377-0.229,0.54-0.59,0.54c-0.132,0-0.328-0.031-0.456-0.174
		c-0.078-0.088-0.108-0.204-0.112-0.347V17.887z M8.096,15.886h0.633c0.484,0,0.584,0.412,0.584,0.684
		c0,0.309-0.121,0.752-0.596,0.752H8.096V15.886z M8.704,18.749l-0.154-0.036c-0.232-0.055-0.456-0.106-0.456-0.422
		c0-0.16,0.086-0.442,0.551-0.442c0.44,0,0.558,0.288,0.56,0.464H8.917c-0.009-0.063-0.032-0.216-0.294-0.216
		c-0.114,0-0.25,0.042-0.25,0.172c0,0.112,0.092,0.136,0.152,0.15l0.35,0.086c0.195,0.048,0.375,0.128,0.375,0.386
		c0,0.432-0.439,0.469-0.565,0.469c-0.523,0-0.613-0.301-0.613-0.479h0.288c0.002,0.08,0.042,0.231,0.304,0.231
		c0.142,0,0.3-0.033,0.3-0.185C8.963,18.814,8.855,18.784,8.704,18.749z M8.371,21.323H8.072V21.03h0.299V21.323z M9.111,21.36
		c-0.523,0-0.613-0.301-0.613-0.479h0.287c0.002,0.08,0.043,0.23,0.305,0.23c0.143,0,0.299-0.033,0.299-0.186
		c0-0.111-0.107-0.143-0.26-0.178l-0.152-0.035C8.745,20.657,8.52,20.605,8.52,20.29c0-0.16,0.086-0.443,0.553-0.443
		c0.439,0,0.557,0.289,0.559,0.465H9.344c-0.008-0.064-0.033-0.217-0.295-0.217c-0.113,0-0.25,0.043-0.25,0.172
		c0,0.113,0.094,0.137,0.152,0.15l0.35,0.086c0.197,0.049,0.377,0.129,0.377,0.387C9.678,21.323,9.238,21.36,9.111,21.36z
		 M10.83,20.141h-0.434v1.182h-0.301v-1.182H9.662v-0.254h1.168V20.141z M11.941,21.323h-1.014v-1.436h0.301v1.176h0.713V21.323z
		 M11.825,19.192c-0.081,0.08-0.159,0.131-0.453,0.131h-0.607v-1.436h0.697c0.352,0,0.441,0.221,0.441,0.368
		c0,0.206-0.115,0.264-0.176,0.294c0.176,0.065,0.222,0.206,0.222,0.348C11.949,19.011,11.901,19.118,11.825,19.192z M12.02,18.78
		h0.28c0,0.227,0.016,0.335,0.176,0.335c0.155,0,0.168-0.099,0.168-0.209v-1.02h0.3v1.02c0,0.303-0.158,0.452-0.446,0.452
		C12.02,19.358,12.02,19.055,12.02,18.78z M13.695,21.323h-0.301v-0.645h-0.561v0.645h-0.299v-1.436h0.299v0.543h0.561v-0.543h0.301
		V21.323z M14.998,21.323H13.91v-1.436h1.055v0.254h-0.762v0.301h0.699v0.254h-0.699v0.373h0.795V21.323z M14.35,18.606
		c0-0.502,0.29-0.758,0.66-0.758c0.43,0,0.604,0.296,0.619,0.508h-0.3c-0.024-0.086-0.07-0.247-0.317-0.247
		c-0.145,0-0.356,0.096-0.356,0.501c0,0.258,0.103,0.49,0.356,0.49c0.165,0,0.281-0.093,0.317-0.27h0.3
		c-0.06,0.313-0.264,0.53-0.624,0.53C14.624,19.36,14.35,19.102,14.35,18.606z M16.365,21.323h-0.332
		c-0.02-0.069-0.031-0.143-0.031-0.292c0-0.195-0.012-0.271-0.234-0.271h-0.311v0.563h-0.293v-1.436h0.727
		c0.381,0,0.451,0.281,0.451,0.406c0,0.158-0.08,0.293-0.223,0.342c0.119,0.051,0.182,0.096,0.182,0.363
		c0,0.209,0,0.262,0.064,0.285V21.323z M16.388,19.323h-0.3v-1.182h-0.434v-0.254h1.167v0.254h-0.434V19.323z M17.617,21.323h-1.088
		v-1.436h1.055v0.254h-0.762v0.301h0.699v0.254h-0.699v0.373h0.795V21.323z"/>
	<path fill="#FFFFFF" d="M11.616,18.289c0-0.118-0.084-0.154-0.221-0.154h-0.344v0.314h0.353
		C11.521,18.449,11.616,18.402,11.616,18.289z"/>
</g>
</svg>
